<?xml version="1.0" encoding="UTF-8"?>
<svg xmlns="http://www.w3.org/2000/svg" xmlns:xlink="http://www.w3.org/1999/xlink" viewBox="0 0 64 64" width="64px" height="64px">
<g id="surface594836">
<path style=" stroke:none;fill-rule:nonzero;fill:rgb(0%,0%,0%);fill-opacity:1;" d="M 51 59 L 33.863281 49.980469 C 32.695312 49.367188 31.304688 49.367188 30.136719 49.980469 L 13 59 L 13 7 L 51 7 Z M 51 59 "/>
<path style=" stroke:none;fill-rule:nonzero;fill:rgb(90.196079%,49.411765%,13.333334%);fill-opacity:1;" d="M 30.726562 28.753906 L 30.726562 29.722656 C 30.726562 31.761719 30.402344 33.289062 29.75 34.308594 C 29.097656 35.328125 28.074219 35.839844 26.679688 35.839844 C 25.585938 35.839844 24.710938 35.347656 24.054688 34.359375 L 23.949219 35.605469 L 20.914062 35.605469 L 20.914062 17.742188 L 24.203125 17.742188 L 24.203125 24.046875 C 24.824219 23.207031 25.640625 22.789062 26.660156 22.789062 C 28.050781 22.789062 29.074219 23.292969 29.726562 24.308594 C 30.378906 25.320312 30.710938 26.800781 30.726562 28.753906 Z M 27.4375 30.09375 L 27.4375 28.894531 C 27.4375 27.570312 27.308594 26.679688 27.054688 26.226562 C 26.796875 25.773438 26.351562 25.546875 25.71875 25.546875 C 25.023438 25.546875 24.519531 25.859375 24.203125 26.488281 L 24.203125 32.222656 C 24.496094 32.808594 25.011719 33.101562 25.738281 33.101562 C 26.367188 33.101562 26.800781 32.898438 27.046875 32.488281 C 27.292969 32.078125 27.421875 31.277344 27.4375 30.09375 Z M 43.832031 18.671875 L 43.832031 21.523438 L 39.644531 21.523438 L 39.644531 35.605469 L 36.214844 35.605469 L 36.214844 21.523438 L 32.097656 21.523438 L 32.097656 18.671875 Z M 43.832031 18.671875 "/>
</g>
</svg>
